<svg xmlns="http://www.w3.org/2000/svg" xmlns:xlink="http://www.w3.org/1999/xlink" width="200" zoomAndPan="magnify" viewBox="0 0 150 74.999997" height="100" preserveAspectRatio="xMidYMid meet" version="1.0"><defs><g/><clipPath id="id1"><path d="M 11.433594 41.019531 L 47.433594 41.019531 L 47.433594 43.269531 L 11.433594 43.269531 Z M 11.433594 41.019531 " clip-rule="nonzero"/></clipPath><clipPath id="id2"><path d="M 104 41.019531 L 139.960938 41.019531 L 139.960938 43.269531 L 104 43.269531 Z M 104 41.019531 " clip-rule="nonzero"/></clipPath><clipPath id="id3"><path d="M 54.824219 3.265625 L 95.324219 3.265625 L 95.324219 43.765625 L 54.824219 43.765625 Z M 54.824219 3.265625 " clip-rule="nonzero"/></clipPath></defs><g clip-path="url(#id1)"><path fill="#012d77" d="M 11.507812 41.019531 L 47.355469 41.019531 L 47.355469 43.269531 L 11.507812 43.269531 L 11.507812 41.019531 " fill-opacity="1" fill-rule="nonzero"/></g><g clip-path="url(#id2)"><path fill="#012d77" d="M 104.035156 41.019531 L 139.882812 41.019531 L 139.882812 43.269531 L 104.035156 43.269531 L 104.035156 41.019531 " fill-opacity="1" fill-rule="nonzero"/></g><g clip-path="url(#id3)"><path fill="#012d77" d="M 93.976562 22.980469 L 87.917969 19.683594 C 87.042969 19.179688 86.472656 18.984375 85.886719 18.984375 C 85.839844 18.984375 85.734375 18.992188 85.582031 19.011719 L 85.582031 6.925781 C 85.554688 5.65625 84.914062 5.1875 83.042969 4.871094 C 83.042969 4.871094 71.941406 3.265625 71.375 3.265625 C 70.789062 3.269531 70.21875 3.464844 69.34375 3.96875 L 63.285156 7.265625 C 62.265625 7.894531 61.941406 9.144531 61.9375 9.679688 L 61.9375 22.046875 C 60.367188 22.257812 57.359375 22.746094 57.359375 22.746094 C 55.492188 23.0625 54.851562 23.53125 54.824219 24.800781 L 54.824219 37.570312 C 54.820312 38.578125 55.222656 39.347656 55.949219 39.734375 L 62.769531 43.40625 C 62.769531 43.40625 63.738281 43.882812 65.203125 43.742188 L 76.621094 42.183594 C 77.496094 42.070312 78.210938 41.402344 78.410156 40.582031 L 79.625 41.246094 C 79.625 41.246094 80.59375 41.722656 82.058594 41.582031 L 93.480469 40.023438 C 94.515625 39.886719 95.328125 38.976562 95.324219 37.945312 L 95.324219 25.398438 C 95.320312 24.859375 94.996094 23.609375 93.976562 22.980469 Z M 63.292969 9.6875 C 63.296875 9.441406 63.488281 9.28125 63.738281 9.277344 C 63.820312 9.277344 75.1875 10.761719 75.1875 10.761719 C 75.539062 10.808594 75.847656 11.148438 75.847656 11.488281 L 75.882812 11.492188 L 75.882812 24.121094 C 75.878906 24.363281 75.710938 24.527344 75.460938 24.527344 C 75.433594 24.527344 63.960938 22.964844 63.960938 22.964844 C 63.601562 22.917969 63.292969 22.578125 63.292969 22.238281 Z M 77.113281 40.113281 C 77.113281 40.453125 76.804688 40.792969 76.445312 40.839844 C 76.445312 40.839844 64.972656 42.402344 64.945312 42.402344 C 64.695312 42.402344 64.527344 42.238281 64.523438 41.996094 L 64.523438 29.367188 L 64.558594 29.363281 C 64.558594 29.023438 64.863281 28.6875 65.21875 28.636719 C 65.21875 28.636719 76.585938 27.152344 76.667969 27.152344 C 76.917969 27.15625 77.109375 27.316406 77.113281 27.5625 Z M 93.96875 37.953125 C 93.96875 38.292969 93.660156 38.632812 93.300781 38.679688 C 93.300781 38.679688 81.828125 40.242188 81.800781 40.242188 C 81.550781 40.242188 81.382812 40.078125 81.382812 39.835938 L 81.382812 27.207031 L 81.414062 27.203125 C 81.414062 26.863281 81.722656 26.527344 82.074219 26.476562 C 82.074219 26.476562 93.441406 24.992188 93.523438 24.992188 C 93.773438 24.996094 93.96875 25.15625 93.96875 25.402344 Z M 93.96875 37.953125 " fill-opacity="1" fill-rule="nonzero"/></g><g fill="#14327a" fill-opacity="1"><g transform="translate(13.51562, 67.40864)"><g><path d="M 12.65625 0 L 11.25 -3.328125 L 4.609375 -3.328125 L 3.1875 0 L 1.015625 0 L 6.859375 -13.671875 L 9.140625 -13.671875 L 14.9375 0 Z M 6.875 -8.640625 L 5.46875 -5.359375 L 10.390625 -5.359375 L 8.953125 -8.71875 C 8.773438 -9.144531 8.601562 -9.582031 8.4375 -10.03125 C 8.269531 -10.476562 8.101562 -10.941406 7.9375 -11.421875 C 7.75 -10.929688 7.570312 -10.453125 7.40625 -9.984375 C 7.238281 -9.515625 7.0625 -9.066406 6.875 -8.640625 Z M 6.875 -8.640625 "/></g></g></g><g fill="#14327a" fill-opacity="1"><g transform="translate(29.467178, 67.40864)"><g><path d="M 2.484375 0 L 2.484375 -14.453125 L 4.5 -14.453125 L 4.5 0 Z M 2.484375 0 "/></g></g></g><g fill="#14327a" fill-opacity="1"><g transform="translate(36.476495, 67.40864)"><g><path d="M 2.484375 0 L 2.484375 -14.453125 L 4.5 -14.453125 L 4.5 0 Z M 2.484375 0 "/></g></g></g><g fill="#14327a" fill-opacity="1"><g transform="translate(43.485812, 67.40864)"><g/></g></g><g fill="#14327a" fill-opacity="1"><g transform="translate(50.553703, 67.40864)"><g><path d="M 2.578125 -13.671875 L 12.28125 -13.671875 L 12.28125 -11.640625 L 4.6875 -11.640625 L 4.6875 -8.03125 L 11.21875 -8.03125 L 11.21875 -6 L 4.6875 -6 L 4.6875 -2.03125 L 12.28125 -2.03125 L 12.28125 0 L 2.578125 0 Z M 2.578125 -13.671875 "/></g></g></g><g fill="#14327a" fill-opacity="1"><g transform="translate(64.962821, 67.40864)"><g><path d="M 8.328125 -10.46875 C 9.316406 -10.46875 10.101562 -10.269531 10.6875 -9.875 C 11.28125 -9.488281 11.710938 -8.972656 11.984375 -8.328125 C 12.253906 -7.679688 12.390625 -6.960938 12.390625 -6.171875 L 12.390625 0 L 10.375 0 L 10.375 -5.953125 C 10.375 -6.734375 10.148438 -7.378906 9.703125 -7.890625 C 9.265625 -8.398438 8.609375 -8.640625 7.734375 -8.609375 C 7.117188 -8.609375 6.570312 -8.472656 6.09375 -8.203125 C 5.625 -7.941406 5.253906 -7.601562 4.984375 -7.1875 C 4.710938 -6.769531 4.578125 -6.34375 4.578125 -5.90625 L 4.578125 0 L 2.5625 0 L 2.5625 -10.25 L 4.578125 -10.25 L 4.578125 -8.53125 C 4.960938 -9.039062 5.476562 -9.488281 6.125 -9.875 C 6.78125 -10.269531 7.515625 -10.46875 8.328125 -10.46875 Z M 8.328125 -10.46875 "/></g></g></g><g fill="#14327a" fill-opacity="1"><g transform="translate(79.860056, 67.40864)"><g><path d="M 3.84375 1.65625 C 4.25 1.914062 4.769531 2.15625 5.40625 2.375 C 6.050781 2.59375 6.75 2.703125 7.5 2.703125 C 8.582031 2.703125 9.4375 2.414062 10.0625 1.84375 C 10.695312 1.269531 11.015625 0.421875 11.015625 -0.703125 L 11.015625 -1.703125 C 10.804688 -1.390625 10.492188 -1.085938 10.078125 -0.796875 C 9.671875 -0.503906 9.191406 -0.265625 8.640625 -0.078125 C 8.097656 0.109375 7.523438 0.203125 6.921875 0.203125 C 5.859375 0.203125 4.921875 -0.0234375 4.109375 -0.484375 C 3.296875 -0.941406 2.65625 -1.570312 2.1875 -2.375 C 1.71875 -3.1875 1.484375 -4.109375 1.484375 -5.140625 C 1.484375 -6.179688 1.722656 -7.101562 2.203125 -7.90625 C 2.691406 -8.707031 3.347656 -9.332031 4.171875 -9.78125 C 4.992188 -10.238281 5.941406 -10.46875 7.015625 -10.46875 C 7.910156 -10.46875 8.710938 -10.289062 9.421875 -9.9375 C 10.128906 -9.59375 10.660156 -9.21875 11.015625 -8.8125 L 11.015625 -10.25 L 13.03125 -10.25 L 13.03125 -0.9375 C 13.03125 0.34375 12.769531 1.378906 12.25 2.171875 C 11.726562 2.960938 11.046875 3.546875 10.203125 3.921875 C 9.367188 4.304688 8.46875 4.5 7.5 4.5 C 6.570312 4.5 5.722656 4.378906 4.953125 4.140625 C 4.191406 3.910156 3.582031 3.617188 3.125 3.265625 Z M 7.359375 -8.640625 C 6.617188 -8.640625 5.957031 -8.484375 5.375 -8.171875 C 4.800781 -7.867188 4.347656 -7.453125 4.015625 -6.921875 C 3.691406 -6.398438 3.53125 -5.804688 3.53125 -5.140625 C 3.53125 -4.472656 3.691406 -3.878906 4.015625 -3.359375 C 4.347656 -2.835938 4.800781 -2.421875 5.375 -2.109375 C 5.957031 -1.804688 6.617188 -1.65625 7.359375 -1.65625 C 8.085938 -1.65625 8.734375 -1.804688 9.296875 -2.109375 C 9.859375 -2.410156 10.296875 -2.820312 10.609375 -3.34375 C 10.929688 -3.875 11.09375 -4.472656 11.09375 -5.140625 C 11.09375 -5.816406 10.929688 -6.414062 10.609375 -6.9375 C 10.296875 -7.457031 9.859375 -7.867188 9.296875 -8.171875 C 8.734375 -8.484375 8.085938 -8.640625 7.359375 -8.640625 Z M 7.359375 -8.640625 "/></g></g></g><g fill="#14327a" fill-opacity="1"><g transform="translate(95.28445, 67.40864)"><g><path d="M 2.484375 0 L 2.484375 -14.453125 L 4.5 -14.453125 L 4.5 0 Z M 2.484375 0 "/></g></g></g><g fill="#14327a" fill-opacity="1"><g transform="translate(102.293767, 67.40864)"><g><path d="M 4.25 -12.203125 C 3.789062 -12.203125 3.453125 -12.316406 3.234375 -12.546875 C 3.015625 -12.785156 2.90625 -13.097656 2.90625 -13.484375 C 2.90625 -13.804688 3.015625 -14.097656 3.234375 -14.359375 C 3.453125 -14.617188 3.789062 -14.75 4.25 -14.75 C 4.707031 -14.75 5.046875 -14.628906 5.265625 -14.390625 C 5.484375 -14.160156 5.59375 -13.859375 5.59375 -13.484375 C 5.59375 -13.148438 5.484375 -12.851562 5.265625 -12.59375 C 5.046875 -12.332031 4.707031 -12.203125 4.25 -12.203125 Z M 4.421875 0 L 2.40625 0 L 2.40625 -10.25 L 4.421875 -10.25 Z M 4.421875 0 "/></g></g></g><g fill="#14327a" fill-opacity="1"><g transform="translate(109.752148, 67.40864)"><g><path d="M 9.234375 -7.515625 C 8.796875 -7.878906 8.273438 -8.1875 7.671875 -8.4375 C 7.078125 -8.6875 6.519531 -8.8125 6 -8.8125 C 5.65625 -8.8125 5.304688 -8.773438 4.953125 -8.703125 C 4.597656 -8.640625 4.296875 -8.519531 4.046875 -8.34375 C 3.796875 -8.175781 3.671875 -7.921875 3.671875 -7.578125 C 3.671875 -7.265625 3.796875 -7.015625 4.046875 -6.828125 C 4.296875 -6.640625 4.625 -6.484375 5.03125 -6.359375 C 5.4375 -6.242188 5.890625 -6.132812 6.390625 -6.03125 C 6.878906 -5.925781 7.363281 -5.804688 7.84375 -5.671875 C 8.320312 -5.535156 8.75 -5.351562 9.125 -5.125 C 9.507812 -4.894531 9.816406 -4.609375 10.046875 -4.265625 C 10.285156 -3.921875 10.40625 -3.488281 10.40625 -2.96875 C 10.40625 -2.289062 10.207031 -1.71875 9.8125 -1.25 C 9.414062 -0.78125 8.894531 -0.421875 8.25 -0.171875 C 7.601562 0.078125 6.90625 0.203125 6.15625 0.203125 C 5.226562 0.203125 4.347656 0.0625 3.515625 -0.21875 C 2.679688 -0.5 1.976562 -0.976562 1.40625 -1.65625 L 2.78125 -2.875 C 3.195312 -2.445312 3.679688 -2.101562 4.234375 -1.84375 C 4.785156 -1.59375 5.429688 -1.46875 6.171875 -1.46875 C 6.492188 -1.46875 6.832031 -1.503906 7.1875 -1.578125 C 7.539062 -1.660156 7.835938 -1.796875 8.078125 -1.984375 C 8.328125 -2.171875 8.453125 -2.4375 8.453125 -2.78125 C 8.453125 -3.070312 8.328125 -3.304688 8.078125 -3.484375 C 7.835938 -3.671875 7.507812 -3.820312 7.09375 -3.9375 C 6.675781 -4.050781 6.226562 -4.148438 5.75 -4.234375 C 5.039062 -4.390625 4.375 -4.578125 3.75 -4.796875 C 3.125 -5.015625 2.617188 -5.332031 2.234375 -5.75 C 1.847656 -6.175781 1.65625 -6.765625 1.65625 -7.515625 C 1.65625 -8.117188 1.847656 -8.640625 2.234375 -9.078125 C 2.617188 -9.523438 3.132812 -9.867188 3.78125 -10.109375 C 4.4375 -10.347656 5.15625 -10.46875 5.9375 -10.46875 C 6.4375 -10.46875 6.957031 -10.410156 7.5 -10.296875 C 8.050781 -10.191406 8.578125 -10.019531 9.078125 -9.78125 C 9.578125 -9.539062 10.003906 -9.222656 10.359375 -8.828125 Z M 9.234375 -7.515625 "/></g></g></g><g fill="#14327a" fill-opacity="1"><g transform="translate(121.584022, 67.40864)"><g><path d="M 8.40625 -10.46875 C 9.363281 -10.46875 10.132812 -10.269531 10.71875 -9.875 C 11.3125 -9.488281 11.738281 -8.972656 12 -8.328125 C 12.257812 -7.679688 12.390625 -6.960938 12.390625 -6.171875 L 12.390625 0 L 10.375 0 L 10.375 -5.953125 C 10.375 -6.753906 10.148438 -7.410156 9.703125 -7.921875 C 9.265625 -8.429688 8.609375 -8.671875 7.734375 -8.640625 C 7.117188 -8.640625 6.570312 -8.503906 6.09375 -8.234375 C 5.625 -7.960938 5.253906 -7.613281 4.984375 -7.1875 C 4.710938 -6.769531 4.578125 -6.34375 4.578125 -5.90625 L 4.578125 0 L 2.5625 0 L 2.5625 -14.453125 L 4.578125 -14.453125 L 4.578125 -8.59375 C 4.960938 -9.101562 5.492188 -9.539062 6.171875 -9.90625 C 6.847656 -10.28125 7.59375 -10.46875 8.40625 -10.46875 Z M 8.40625 -10.46875 "/></g></g></g></svg>